<svg width="27" height="27" viewBox="0 0 27 27" fill="none" xmlns="http://www.w3.org/2000/svg">
<path d="M13.3333 0.656982C11.5824 0.656982 9.84856 1.00186 8.23089 1.67192C6.61321 2.34198 5.14336 3.32411 3.90524 4.56223C1.40476 7.06271 0 10.4541 0 13.9903C0 19.8836 3.82667 24.8836 9.12 26.657C9.78667 26.7636 10 26.3503 10 25.9903V23.737C6.30667 24.537 5.52 21.9503 5.52 21.9503C4.90667 20.4036 4.04 19.9903 4.04 19.9903C2.82667 19.1637 4.13333 19.1903 4.13333 19.1903C5.46667 19.2836 6.17333 20.5637 6.17333 20.5637C7.33333 22.5903 9.29333 21.9903 10.0533 21.6703C10.1733 20.8036 10.52 20.217 10.8933 19.8836C7.93333 19.5503 4.82667 18.4037 4.82667 13.3236C4.82667 11.8436 5.33333 10.657 6.2 9.71032C6.06667 9.37698 5.6 7.99032 6.33333 6.19032C6.33333 6.19032 7.45333 5.83032 10 7.55032C11.0533 7.25698 12.2 7.11032 13.3333 7.11032C14.4667 7.11032 15.6133 7.25698 16.6667 7.55032C19.2133 5.83032 20.3333 6.19032 20.3333 6.19032C21.0667 7.99032 20.6 9.37698 20.4667 9.71032C21.3333 10.657 21.84 11.8436 21.84 13.3236C21.84 18.417 18.72 19.537 15.7467 19.8703C16.2267 20.2836 16.6667 21.097 16.6667 22.337V25.9903C16.6667 26.3503 16.88 26.777 17.56 26.657C22.8533 24.8703 26.6667 19.8836 26.6667 13.9903C26.6667 12.2394 26.3218 10.5055 25.6517 8.88787C24.9817 7.2702 23.9995 5.80034 22.7614 4.56223C21.5233 3.32411 20.0535 2.34198 18.4358 1.67192C16.8181 1.00186 15.0843 0.656982 13.3333 0.656982Z" fill="#E0E0E0"/>
</svg>
