<svg width="27" height="27" viewBox="0 0 27 27" fill="none" xmlns="http://www.w3.org/2000/svg">
<path d="M15.0381 0.333618C16.5381 0.337618 17.2994 0.345618 17.9567 0.364285L18.2154 0.373618C18.5141 0.384285 18.8087 0.397618 19.1647 0.413618C20.5834 0.480285 21.5514 0.704285 22.4007 1.03362C23.2807 1.37229 24.0221 1.83095 24.7634 2.57095C25.4414 3.23748 25.966 4.04374 26.3007 4.93362C26.6301 5.78295 26.8541 6.75095 26.9207 8.17095C26.9367 8.52562 26.9501 8.82028 26.9607 9.12029L26.9687 9.37895C26.9887 10.035 26.9967 10.7963 26.9994 12.2963L27.0007 13.291V15.0376C27.004 16.0102 26.9938 16.9827 26.9701 17.955L26.9621 18.2136C26.9514 18.5136 26.9381 18.8083 26.9221 19.163C26.8554 20.583 26.6287 21.5496 26.3007 22.4003C25.967 23.2907 25.4422 24.0971 24.7634 24.763C24.0967 25.4407 23.2905 25.9653 22.4007 26.3003C21.5514 26.6296 20.5834 26.8536 19.1647 26.9203C18.8484 26.9352 18.5319 26.9485 18.2154 26.9603L17.9567 26.9683C17.2994 26.987 16.5381 26.9963 15.0381 26.999L14.0434 27.0003H12.2981C11.3251 27.0036 10.3521 26.9934 9.37942 26.9696L9.12075 26.9616C8.80423 26.9496 8.48778 26.9359 8.17141 26.9203C6.75275 26.8536 5.78475 26.6296 4.93408 26.3003C4.04431 25.9661 3.23837 25.4414 2.57275 24.763C1.89414 24.0967 1.36905 23.2904 1.03408 22.4003C0.704749 21.551 0.480749 20.583 0.414082 19.163C0.399227 18.8466 0.385894 18.5301 0.374082 18.2136L0.367416 17.955C0.342845 16.9827 0.331733 16.0102 0.334082 15.0376V12.2963C0.330361 11.3238 0.34014 10.3512 0.363416 9.37895L0.372749 9.12029C0.383416 8.82028 0.396749 8.52562 0.412749 8.17095C0.479416 6.75095 0.703416 5.78428 1.03275 4.93362C1.36757 4.04282 1.89371 3.23632 2.57408 2.57095C3.23954 1.89292 4.04494 1.36827 4.93408 1.03362C5.78475 0.704285 6.75141 0.480285 8.17141 0.413618C8.52608 0.397618 8.82208 0.384285 9.12075 0.373618L9.37942 0.365618C10.3517 0.341928 11.3242 0.331705 12.2967 0.334951L15.0381 0.333618ZM13.6674 7.00029C11.8993 7.00029 10.2036 7.70266 8.95337 8.95291C7.70313 10.2031 7.00075 11.8988 7.00075 13.667C7.00075 15.4351 7.70313 17.1308 8.95337 18.381C10.2036 19.6312 11.8993 20.3336 13.6674 20.3336C15.4355 20.3336 17.1312 19.6312 18.3815 18.381C19.6317 17.1308 20.3341 15.4351 20.3341 13.667C20.3341 11.8988 19.6317 10.2031 18.3815 8.95291C17.1312 7.70266 15.4355 7.00029 13.6674 7.00029ZM13.6674 9.66695C14.1927 9.66686 14.7129 9.77024 15.1982 9.97118C15.6835 10.1721 16.1245 10.4667 16.496 10.8381C16.8675 11.2094 17.1622 11.6503 17.3633 12.1356C17.5644 12.6209 17.668 13.141 17.6681 13.6663C17.6682 14.1916 17.5648 14.7117 17.3639 15.1971C17.1629 15.6824 16.8684 16.1234 16.497 16.4949C16.1256 16.8664 15.6847 17.1611 15.1994 17.3622C14.7142 17.5633 14.194 17.6669 13.6687 17.667C12.6079 17.667 11.5905 17.2455 10.8403 16.4954C10.0902 15.7452 9.66875 14.7278 9.66875 13.667C9.66875 12.6061 10.0902 11.5887 10.8403 10.8385C11.5905 10.0884 12.6079 9.66695 13.6687 9.66695M20.6687 5.00029C20.2267 5.00029 19.8028 5.17588 19.4902 5.48844C19.1777 5.801 19.0021 6.22492 19.0021 6.66695C19.0021 7.10898 19.1777 7.5329 19.4902 7.84546C19.8028 8.15802 20.2267 8.33362 20.6687 8.33362C21.1108 8.33362 21.5347 8.15802 21.8473 7.84546C22.1598 7.5329 22.3354 7.10898 22.3354 6.66695C22.3354 6.22492 22.1598 5.801 21.8473 5.48844C21.5347 5.17588 21.1108 5.00029 20.6687 5.00029Z" fill="#E0E0E0"/>
</svg>
