<svg width="46" height="46" viewBox="0 0 46 46" fill="none" xmlns="http://www.w3.org/2000/svg">
<path fill-rule="evenodd" clip-rule="evenodd" d="M30.2725 23.7933C30.2654 23.9946 30.299 24.1953 30.3711 24.3834C30.4432 24.5715 30.5525 24.7431 30.6924 24.888C30.8323 25.0329 31 25.1482 31.1854 25.2269C31.3708 25.3057 31.5702 25.3462 31.7716 25.3462C31.973 25.3462 32.1724 25.3057 32.3578 25.2269C32.5433 25.1482 32.7109 25.0329 32.8508 24.888C32.9907 24.7431 33.1 24.5715 33.1721 24.3834C33.2443 24.1953 33.2778 23.9946 33.2707 23.7933V14.6009L33.2721 13.1004L31.773 13.1004L22.5806 13.1004C22.1874 13.1071 21.8125 13.2679 21.5367 13.5483C21.2608 13.8287 21.1062 14.2062 21.106 14.5995C21.1058 14.9928 21.2601 15.3705 21.5357 15.6511C21.8112 15.9318 22.186 16.093 22.5792 16.1L28.1512 16.1L13.4731 30.7781C13.1918 31.0594 13.0338 31.4409 13.0338 31.8388C13.0338 32.2366 13.1918 32.6181 13.4731 32.8994C13.7544 33.1807 14.1359 33.3388 14.5338 33.3388C14.9316 33.3388 15.3131 33.1807 15.5944 32.8994L30.2725 18.2213L30.2725 23.7933Z" fill="#F2F2F2"/>
</svg>
